<?xml version="1.0" standalone="no"?>
<!DOCTYPE svg PUBLIC "-//W3C//DTD SVG 20010904//EN"
 "http://www.w3.org/TR/2001/REC-SVG-20010904/DTD/svg10.dtd">
<svg version="1.0" xmlns="http://www.w3.org/2000/svg"
 width="256.000000pt" height="256.000000pt" viewBox="0 0 256.000000 256.000000"
 preserveAspectRatio="xMidYMid meet">
<metadata>
Created by potrace 1.14, written by Peter Selinger 2001-2017
</metadata>
<g transform="translate(0.000000,256.000000) scale(0.100000,-0.100000)"
fill="#000000" stroke="none">
<path d="M690 1441 c0 -313 -4 -490 -11 -516 -26 -94 -104 -148 -207 -144 -31
1 -68 7 -82 13 -66 26 -120 87 -120 134 0 25 -10 28 -90 27 l-65 0 2 -43 c7
-114 121 -232 248 -257 217 -42 387 32 458 198 22 51 22 61 25 558 l3 506 -81
0 -80 1 0 -477z"/>
<path d="M1168 1912 c-3 -6 -2 -1203 1 -1239 1 -9 23 -13 74 -13 l72 0 -1 475
c0 261 3 475 7 475 4 0 22 -35 39 -77 18 -43 52 -123 75 -178 93 -219 264
-622 279 -657 l15 -38 75 0 c45 0 76 4 76 10 0 6 9 29 19 53 11 23 32 71 46
107 28 68 235 556 265 625 9 22 28 66 40 98 13 31 27 57 32 57 4 0 8 -214 8
-475 l0 -476 73 3 72 3 0 625 0 625 -94 0 -94 0 -32 -75 c-17 -41 -116 -276
-220 -523 -108 -256 -192 -444 -197 -439 -5 5 -103 234 -219 508 -115 274
-213 506 -218 514 -6 11 -30 16 -99 17 -50 2 -93 -1 -94 -5z"/>
</g>
</svg>
